<svg width="18" height="20" viewBox="0 0 18 20" fill="none" xmlns="http://www.w3.org/2000/svg">
<path d="M7.07925 1C6.91775 0.999914 6.76283 1.06623 6.64856 1.18438C6.5343 1.30253 6.47003 1.46281 6.4699 1.63001V2.57464C6.46998 2.91225 6.3615 3.24031 6.16156 3.50703C5.96163 3.77374 5.68163 3.96396 5.36572 4.04768L2.70802 4.74974C2.19014 4.88692 1.7356 5.20887 1.42442 5.65887C1.11324 6.10887 0.965376 6.65806 1.00685 7.20982L1.85203 18.4528C1.86384 18.6111 1.9329 18.759 2.04543 18.8668C2.15796 18.9747 2.30567 19.0347 2.45904 19.0348H15.5402C15.6936 19.0347 15.8413 18.9747 15.9538 18.8668C16.0664 18.759 16.1354 18.6111 16.1472 18.4528L16.9932 7.20982C17.0346 6.65784 16.8865 6.10847 16.575 5.65844C16.2635 5.20841 15.8086 4.8866 15.2905 4.74974L12.6344 4.04768C12.3183 3.96412 12.0381 3.77395 11.838 3.50722C11.6379 3.24049 11.5293 2.91236 11.5293 2.57464V1.63001C11.5292 1.46282 11.4649 1.30253 11.3507 1.18438C11.2364 1.06623 11.0815 0.999925 10.92 1H7.07925ZM7.07212 1.40024H10.9137C10.9428 1.40024 10.9717 1.40619 10.9986 1.41774C11.0255 1.42928 11.05 1.44618 11.0706 1.46752C11.0912 1.48885 11.1076 1.5142 11.1187 1.54207C11.1299 1.56995 11.1356 1.59983 11.1356 1.63001V2.57464C11.1356 3.00141 11.2729 3.41602 11.5257 3.75306C11.7786 4.09009 12.1327 4.33035 12.5321 4.43592L15.1882 5.13802C15.6181 5.25168 15.9954 5.51873 16.2537 5.89218C16.512 6.26562 16.6347 6.7215 16.6002 7.17942H16.6074L15.7622 18.4215C15.7579 18.4794 15.7326 18.5334 15.6915 18.5727C15.6503 18.6121 15.5963 18.6338 15.5403 18.6337H13.5846L12.9784 16.4882C12.9478 16.3836 12.9428 16.2727 12.9638 16.1656L14.4206 9.12958C14.429 9.07864 14.4181 9.02629 14.3901 8.9835C14.3621 8.9407 14.3193 8.91072 14.2705 8.89986C14.2217 8.88901 14.1707 8.89813 14.1282 8.92525C14.0857 8.95237 14.055 8.99541 14.0425 9.04543L12.5849 16.0815C12.5496 16.2536 12.5563 16.4322 12.6043 16.601L13.1773 18.6336H4.81529L5.38824 16.601C5.43625 16.4322 5.44291 16.2536 5.40764 16.0815L3.94932 9.04552C3.93677 8.9955 3.90605 8.95242 3.86356 8.9253C3.82108 8.89818 3.77011 8.8891 3.72131 8.89996C3.67251 8.91081 3.62965 8.94074 3.60167 8.98354C3.5737 9.02634 3.56277 9.07869 3.57118 9.12963L5.02801 16.1657C5.04901 16.2728 5.04398 16.3836 5.01336 16.4883L4.40865 18.6337H2.45231C2.39641 18.6337 2.34259 18.6118 2.30159 18.5725C2.26059 18.5332 2.23544 18.4793 2.23115 18.4216L1.38597 7.17947C1.35145 6.72154 1.47415 6.26572 1.73245 5.89227C1.99075 5.51882 2.36807 5.25172 2.79794 5.13807L5.45408 4.43601C5.8535 4.33046 6.20759 4.09019 6.46047 3.75315C6.71335 3.41611 6.85062 3.00151 6.85061 2.57473V1.63005C6.85061 1.56912 6.87399 1.5107 6.9156 1.46761C6.95722 1.42453 7.01366 1.40029 7.07252 1.40029L7.07212 1.40024Z" fill="#222222" stroke="#222222" stroke-width="0.5"/>
<path d="M9.14384 6.25756C9.14327 6.20474 9.12261 6.15425 9.08633 6.1171C9.05005 6.07996 9.00109 6.05914 8.95006 6.05914C8.89904 6.05914 8.85008 6.07996 8.8138 6.1171C8.77752 6.15425 8.75685 6.20474 8.75629 6.25756V16.2131C8.75685 16.2659 8.77752 16.3164 8.8138 16.3535C8.85008 16.3907 8.89904 16.4115 8.95006 16.4115C9.00109 16.4115 9.05005 16.3907 9.08633 16.3535C9.12261 16.3164 9.14327 16.2659 9.14384 16.2131V6.25756Z" fill="#222222" stroke="#222222" stroke-width="0.5"/>
</svg>
