<svg width="16" height="21" viewBox="0 0 16 21" fill="none" xmlns="http://www.w3.org/2000/svg">
<path d="M8.2184 16.186C7.23733 16.186 6.47924 16.0498 6.43464 16.0498C6.23397 16.0044 6.12248 15.8227 6.14478 15.6411C6.18938 15.4368 6.36775 15.3006 6.56842 15.346C6.59072 15.346 8.41908 15.6638 10.0022 15.3006C10.2028 15.2552 10.3812 15.3687 10.4258 15.573C10.4704 15.7773 10.3589 15.959 10.1582 16.0044C9.48933 16.1406 8.82042 16.186 8.2184 16.186Z" fill="white"/>
<path d="M8.26297 17.0033C7.83933 17.0033 7.52717 16.9579 7.50487 16.9352C7.39339 16.9125 7.3042 16.799 7.3265 16.6855C7.3488 16.572 7.46028 16.4812 7.57177 16.5039C7.57177 16.5039 8.32986 16.6401 8.95418 16.4812C9.06567 16.4585 9.17715 16.5266 9.22174 16.6401C9.24404 16.7536 9.17715 16.8671 9.06567 16.9125C8.7758 16.9806 8.50824 17.0033 8.26297 17.0033Z" fill="white"/>
<path d="M8.19608 20.9762C7.95081 20.9762 7.70554 20.9535 7.43798 20.9081C6.27853 20.7038 5.54273 20.159 4.67315 19.4098C3.62519 18.5017 2.19818 16.9806 1.48468 14.9601C1.06103 13.7569 0.771171 12.4628 0.615092 10.9645C0.525904 10.1018 0.48131 9.21639 0.503607 8.35369C0.525904 7.12776 0.860359 5.92454 1.50697 4.78941C2.30967 3.33646 3.44681 2.22404 4.89612 1.47486C6.03327 0.884599 7.23731 0.61217 8.48594 0.657575C9.77917 0.70298 11.0055 1.06622 12.1204 1.76999C13.2129 2.45107 14.1271 3.35916 14.8183 4.47158C15.5318 5.65211 15.9331 6.90074 16 8.21748C16 8.35369 16 8.48991 16 8.62612C16 8.69423 16 8.78504 16 8.85315C16 11.1915 15.621 13.2574 14.8852 15.1417C14.0602 17.1168 12.6332 18.8649 10.7825 20.0681C9.93524 20.613 9.17715 20.9762 8.19608 20.9762ZM8.21837 1.65648C7.21501 1.65648 6.23394 1.88351 5.31976 2.36026C4.04883 3.01863 3.04547 3.99483 2.35426 5.26617C1.79683 6.26507 1.50697 7.30938 1.48468 8.35369C1.46238 9.17098 1.50697 10.011 1.59616 10.851C1.75224 12.2585 2.0198 13.4844 2.42115 14.6196C3.06776 16.4585 4.36099 17.8206 5.31976 18.6379C6.12246 19.3417 6.67988 19.773 7.59406 19.9092C8.66432 20.0908 9.35552 19.7957 10.2474 19.2055C11.9197 18.1157 13.2129 16.5493 13.9264 14.7558C14.6176 12.985 14.9744 11.0326 14.9744 8.83045C14.9744 8.73964 14.9744 8.67153 14.9744 8.58072C14.9744 8.46721 14.9744 8.35369 14.9744 8.24018C14.9298 7.10506 14.573 6.01535 13.9487 4.99374C13.3467 4.01753 12.5663 3.22295 11.5852 2.60998C10.6042 1.99702 9.5562 1.67918 8.44134 1.63378C8.35216 1.65648 8.28527 1.65648 8.21837 1.65648Z" fill="white"/>
<path d="M8.44135 11.6002C8.46364 10.9191 8.55283 10.3061 8.90958 9.78397C9.35552 9.1483 9.95754 8.78506 10.6933 8.62614C11.6075 8.44453 12.4771 8.60344 13.2798 9.05749C13.3244 9.08019 13.369 9.1029 13.3913 9.1256C13.5251 9.23911 13.5697 9.39803 13.4805 9.53424C13.3913 9.67046 13.2352 9.71586 13.0791 9.64775C12.8116 9.51154 12.544 9.37532 12.2541 9.28451C11.5183 9.08019 10.7825 9.1029 10.0913 9.48884C9.4893 9.82937 9.15485 10.3515 9.08796 11.078C9.04336 11.5548 9.06566 11.7137 9.13255 12.1904C9.15485 12.4174 9.06566 12.5764 8.88729 12.6218C8.73121 12.6445 8.57513 12.531 8.53053 12.3039C8.50824 12.1677 8.48594 12.0315 8.46364 11.8726C8.46364 11.6683 8.44135 11.7591 8.44135 11.6002Z" fill="white"/>
<path d="M5.02988 8.51257C5.94406 8.53528 6.74675 8.83041 7.37106 9.51148C7.41566 9.55688 7.46025 9.60229 7.48255 9.6704C7.59403 9.82931 7.57174 10.0109 7.43796 10.1017C7.30417 10.2153 7.1035 10.1698 6.96972 10.0336C6.59067 9.55688 6.07784 9.30716 5.49812 9.19365C4.78461 9.05743 4.1157 9.21635 3.46909 9.55688C3.20152 9.6931 3.04544 9.6931 2.93396 9.51148C2.84477 9.32986 2.93396 9.14824 3.20152 9.01203C3.80354 8.69419 4.40556 8.53528 5.02988 8.51257Z" fill="white"/>
<path d="M7.9508 14.4833C7.81702 14.4833 7.70553 14.4152 7.63864 14.3017C7.54945 14.1201 7.61634 13.9158 7.77242 13.8023C8.32985 13.5071 8.82038 13.1893 8.82038 13.1893C8.99876 13.0758 9.19943 13.1439 9.31092 13.3028C9.4224 13.4844 9.35551 13.6888 9.19943 13.8023C9.17713 13.825 8.6866 14.1201 8.10688 14.4379C8.06228 14.4606 7.99539 14.4833 7.9508 14.4833Z" fill="white"/>
</svg>
