<svg width="19" height="19" viewBox="0 0 19 19" fill="none" xmlns="http://www.w3.org/2000/svg">
<path d="M17.5233 7.48538C17.8674 7.15002 17.9888 6.65784 17.8404 6.20091C17.6919 5.74398 17.3043 5.41723 16.8289 5.34817L12.6715 4.74407C12.5899 4.73223 12.5194 4.68098 12.4829 4.60699L10.6237 0.83983C10.4111 0.40899 9.98051 0.141357 9.50006 0.141357C9.0196 0.141357 8.58906 0.40899 8.37646 0.83983L6.51724 4.60703C6.48069 4.68098 6.41018 4.73223 6.32854 4.74411L2.17125 5.34817C1.69581 5.41723 1.30827 5.74398 1.15976 6.20091C1.01125 6.65784 1.13275 7.15002 1.47682 7.48538L4.4851 10.4177C4.54414 10.4753 4.57112 10.5583 4.55716 10.6396L3.847 14.7801C3.7658 15.2536 3.95677 15.7232 4.34545 16.0056C4.73414 16.2881 5.23986 16.3245 5.66506 16.101L9.38346 14.1461C9.45649 14.1077 9.54366 14.1077 9.61673 14.1461L13.3352 16.101C13.5201 16.1982 13.7202 16.2463 13.9194 16.2463C14.1781 16.2463 14.4351 16.1652 14.6547 16.0055C15.0433 15.7231 15.2343 15.2535 15.1531 14.78L14.443 10.6395C14.429 10.5582 14.456 10.4753 14.515 10.4177L17.5233 7.48538ZM13.4551 10.809L14.1652 14.9496C14.189 15.0882 14.1034 15.1672 14.0655 15.1947C14.0276 15.2222 13.926 15.2792 13.8016 15.2137L10.0832 13.2589C9.90065 13.1629 9.70041 13.1149 9.50013 13.1149C9.29985 13.1149 9.09957 13.1629 8.91707 13.2588L5.19867 15.2137C5.07421 15.2791 4.97264 15.2221 4.93475 15.1946C4.89686 15.1671 4.81129 15.0881 4.83507 14.9496L5.54524 10.809C5.61496 10.4025 5.48029 9.98792 5.18487 9.69999L2.1766 6.76764C2.07592 6.66945 2.0987 6.55527 2.11321 6.51074C2.12765 6.46617 2.17637 6.36037 2.3155 6.34018L6.47275 5.73608C6.88091 5.67678 7.23364 5.42057 7.41622 5.05063L9.27543 1.28344C9.33767 1.15737 9.4533 1.14376 9.50017 1.14376C9.54696 1.14376 9.6626 1.15734 9.72487 1.28344V1.28347L11.5841 5.05067C11.7666 5.42061 12.1193 5.67681 12.5275 5.73611L16.6848 6.34022C16.8239 6.36041 16.8726 6.4662 16.8871 6.51077C16.9016 6.55534 16.9244 6.66956 16.8237 6.76768L13.8154 9.70003C13.52 9.98792 13.3853 10.4025 13.4551 10.809Z" fill="#222222"/>
<path d="M15.3552 0.839579C15.1312 0.676891 14.8178 0.726543 14.6551 0.950461L14.1231 1.6827C13.9604 1.90662 14.01 2.22008 14.234 2.38277C14.323 2.44738 14.4261 2.47851 14.5282 2.47851C14.6832 2.47851 14.836 2.40686 14.934 2.27193L15.4661 1.53968C15.6288 1.31573 15.5792 1.00227 15.3552 0.839579Z" fill="#222222"/>
<path d="M4.87471 1.67978L4.34267 0.94754C4.18002 0.723696 3.86659 0.674043 3.6426 0.836657C3.41868 0.999344 3.36903 1.31281 3.53172 1.53673L4.06376 2.26897C4.16184 2.40401 4.31465 2.47563 4.4697 2.47563C4.57186 2.47563 4.67495 2.4445 4.76386 2.37985C4.98778 2.2172 5.03743 1.90374 4.87471 1.67978Z" fill="#222222"/>
<path d="M1.83884 11.3862C1.7533 11.123 1.47056 10.9789 1.20727 11.0645L0.346446 11.3442C0.0831546 11.4297 -0.0608669 11.7125 0.0246702 11.9758C0.093471 12.1876 0.289965 12.3222 0.501229 12.3222C0.552551 12.3222 0.604764 12.3143 0.656235 12.2975L1.51706 12.0178C1.78031 11.9323 1.92437 11.6495 1.83884 11.3862Z" fill="#222222"/>
<path d="M9.50016 16.951C9.22336 16.951 8.99896 17.1754 8.99896 17.4522V18.3574C8.99896 18.6342 9.22336 18.8586 9.50016 18.8586C9.77696 18.8586 10.0014 18.6342 10.0014 18.3574V17.4522C10.0014 17.1754 9.777 16.951 9.50016 16.951Z" fill="#222222"/>
<path d="M18.6535 11.3449L17.7927 11.0652C17.5295 10.9797 17.2467 11.1237 17.1611 11.387C17.0756 11.6503 17.2196 11.933 17.4829 12.0185L18.3437 12.2983C18.3952 12.315 18.4474 12.3229 18.4987 12.3229C18.71 12.3229 18.9065 12.1882 18.9753 11.9764C19.0608 11.7132 18.9168 11.4304 18.6535 11.3449Z" fill="#222222"/>
</svg>
