<svg width="18" height="18" viewBox="0 0 18 18" fill="none" xmlns="http://www.w3.org/2000/svg">
<path d="M13.5175 1.20804C12.1387 0.403278 10.6327 0.000976562 9 0.000976562C7.36705 0.000976562 5.86115 0.403278 4.48232 1.20804C3.10348 2.01282 2.01166 3.10464 1.20706 4.48329C0.402301 5.86229 0 7.36818 0 9.00098C0 10.8213 0.495884 12.4736 1.48821 13.9578C2.48035 15.4425 3.78102 16.54 5.39057 17.2507C5.35918 16.4148 5.41 15.7235 5.54292 15.1767L6.70302 10.2782C6.50768 9.89552 6.41009 9.41903 6.41009 8.84859C6.41009 8.18456 6.57805 7.62972 6.91396 7.18462C7.24969 6.73915 7.65998 6.5164 8.14443 6.5164C8.53492 6.5164 8.83583 6.64516 9.04681 6.90328C9.25775 7.161 9.36333 7.48532 9.36333 7.87584C9.36333 8.11818 9.31823 8.41319 9.22863 8.76069C9.13865 9.10839 9.02148 9.51066 8.87711 9.96775C8.73256 10.4247 8.62909 10.7899 8.56649 11.0634C8.45694 11.5398 8.54691 11.948 8.83602 12.2879C9.12491 12.6278 9.50785 12.7977 9.98449 12.7977C10.8205 12.7977 11.506 12.333 12.0413 11.4033C12.5764 10.4735 12.8439 9.34463 12.8439 8.01636C12.8439 6.99304 12.514 6.16084 11.8537 5.52025C11.1935 4.87981 10.2734 4.55931 9.09399 4.55931C7.77352 4.55931 6.7051 4.98331 5.88891 5.83068C5.07253 6.67845 4.66432 7.69225 4.66432 8.87156C4.66432 9.57475 4.86367 10.1648 5.26196 10.6413C5.39473 10.7976 5.43772 10.9654 5.39091 11.1449C5.37512 11.1919 5.34395 11.3091 5.29714 11.4964C5.25037 11.6838 5.21898 11.8052 5.20337 11.8597C5.14078 12.1099 4.99243 12.1881 4.7579 12.0941C4.15628 11.8441 3.69919 11.4106 3.38686 10.7934C3.07435 10.1763 2.91818 9.46155 2.91818 8.64899C2.91818 8.12554 3.00206 7.60206 3.17002 7.07861C3.33798 6.55516 3.59952 6.04939 3.95523 5.5609C4.31054 5.07301 4.73643 4.64105 5.23268 4.26613C5.72875 3.89103 6.3323 3.59051 7.04329 3.36357C7.75412 3.13721 8.51991 3.02386 9.34023 3.02386C10.4496 3.02386 11.4457 3.26999 12.3285 3.76205C13.2112 4.25432 13.8851 4.89116 14.35 5.67232C14.8147 6.45352 15.0473 7.2893 15.0473 8.18024C15.0473 9.35212 14.844 10.4069 14.4379 11.3444C14.0317 12.282 13.4574 13.0182 12.7152 13.5533C11.9728 14.0884 11.129 14.356 10.1838 14.356C9.7072 14.356 9.26188 14.2448 8.84783 14.022C8.43353 13.7993 8.14843 13.5356 7.99226 13.2309C7.64074 14.6135 7.4298 15.4381 7.35943 15.7035C7.21087 16.2583 6.90616 16.8987 6.44527 17.6253C7.28124 17.8753 8.1328 18.0002 9 18.0002C10.6328 18.0002 12.1387 17.598 13.5175 16.7934C14.8963 15.9886 15.9881 14.8968 16.7929 13.5178C17.5975 12.1389 18 10.6332 18 9.0002C18 7.36725 17.5975 5.86157 16.7929 4.48255C15.9883 3.10464 14.8963 2.01282 13.5175 1.20804Z" fill="#222222"/>
</svg>
