<svg width="18" height="20" viewBox="0 0 18 20" fill="none" xmlns="http://www.w3.org/2000/svg">
<path d="M1.62005 4.53952L1.9129 5.36298C1.92545 5.39825 1.95027 5.4262 1.98159 5.44029L2.7132 5.76992C2.81656 5.8165 2.81656 5.98117 2.7132 6.02772L1.98159 6.35734C1.95027 6.37144 1.92545 6.39939 1.9129 6.43465L1.62005 7.25812C1.57867 7.37445 1.43235 7.37445 1.39101 7.25812L1.09815 6.43465C1.0856 6.39939 1.06078 6.37144 1.02946 6.35734L0.297856 6.02772C0.194497 5.98114 0.194497 5.81646 0.297856 5.76992L1.02946 5.44029C1.06078 5.4262 1.0856 5.39825 1.09815 5.36298L1.39101 4.53952C1.43235 4.42319 1.57867 4.42319 1.62005 4.53952Z" fill="#222222" stroke="#222222" stroke-width="0.3"/>
<path d="M5.25595 1.09146L5.47318 1.70227C5.4825 1.72843 5.50088 1.74913 5.52412 1.75961L6.06683 2.00412C6.1435 2.03868 6.1435 2.16081 6.06683 2.19537L5.52412 2.43988C5.50088 2.45036 5.48246 2.47107 5.47318 2.49722L5.25595 3.10806C5.22526 3.19437 5.11673 3.19437 5.08604 3.10806L4.86881 2.49722C4.85953 2.47107 4.8411 2.45036 4.81787 2.43988L4.27516 2.19537C4.19848 2.16081 4.19848 2.03868 4.27516 2.00412L4.81787 1.75961C4.8411 1.74913 4.85953 1.72843 4.86881 1.70227L5.08604 1.09146C5.11673 1.00516 5.22526 1.00516 5.25595 1.09146Z" fill="#222222" stroke="#222222" stroke-width="0.3"/>
<path d="M17.7706 4.01912C17.8525 3.67549 17.6404 3.33051 17.2968 3.24858C16.9531 3.16664 16.6082 3.37879 16.5262 3.72241C16.4443 4.06604 16.6564 4.41102 17.0001 4.49296C17.3437 4.57489 17.6887 4.36275 17.7706 4.01912Z" fill="#222222" stroke="#222222" stroke-width="0.3"/>
<path d="M2.1617 3.06101C2.31404 3.06101 2.43754 2.93751 2.43754 2.78517C2.43754 2.63283 2.31404 2.50934 2.1617 2.50934C2.00936 2.50934 1.88586 2.63283 1.88586 2.78517C1.88586 2.93751 2.00936 3.06101 2.1617 3.06101Z" fill="#222222" stroke="#222222" stroke-width="0.3"/>
<path d="M15.7731 6.43824C15.4452 5.41027 14.8645 4.51917 14.0898 3.83263L14.4569 3.1968C14.6525 2.85796 14.7045 2.46326 14.6032 2.08533C14.502 1.7074 14.2596 1.39156 13.9208 1.19595C13.2213 0.792111 12.3238 1.03265 11.9199 1.73208L11.4708 2.50992C10.4232 2.28632 9.32479 2.36036 8.27474 2.73794C6.7664 3.28033 5.53846 4.38406 4.81705 5.84589C4.81417 5.85176 4.80766 5.8653 4.79779 5.88586C4.51295 6.4799 3.93294 7.64399 3.24856 8.76632C2.65557 9.73874 2.20209 10.3207 1.86628 10.6682C1.3125 10.5182 0.710344 10.7753 0.447024 11.3089L0.433137 11.3371C0.288258 11.6306 0.266391 11.963 0.371544 12.273C0.476696 12.583 0.696247 12.8335 0.989801 12.9784L6.53876 15.7167C6.3852 16.0222 6.29839 16.3666 6.29839 16.7311C6.29839 17.9821 7.31617 18.9999 8.56717 18.9999C9.46225 18.9999 10.2375 18.4787 10.6064 17.724L12.0773 18.4498C12.2512 18.5356 12.4357 18.5762 12.6177 18.5762C13.0698 18.5762 13.5054 18.3253 13.7185 17.8932L13.7326 17.8648C13.9774 17.3687 13.8542 16.7854 13.469 16.426C13.5394 15.9129 13.7352 15.1221 14.1908 13.9089C14.7496 12.4208 15.4034 11.0862 15.4099 11.0731C16.1312 9.61137 16.2603 7.96529 15.7731 6.43824ZM12.5374 2.08853C12.6378 1.91465 12.7999 1.79027 12.9939 1.73831C13.0586 1.72094 13.1244 1.71236 13.1897 1.71236C13.3199 1.71236 13.4485 1.74653 13.5643 1.8134C13.7382 1.91381 13.8625 2.07588 13.9145 2.26983C13.9665 2.46379 13.9398 2.66636 13.8394 2.84024L13.522 3.39005C13.2991 3.23783 13.0643 3.10005 12.8182 2.97862C12.6091 2.87544 12.3956 2.78596 12.1789 2.70957L12.5374 2.08853ZM8.56717 18.287C7.70932 18.287 7.0114 17.589 7.0114 16.7312C7.0114 16.4798 7.07152 16.2424 7.17786 16.0321L9.9666 17.4083C9.71453 17.9278 9.18233 18.287 8.56717 18.287ZM13.0931 17.5492L13.0791 17.5776C12.9541 17.831 12.6462 17.9355 12.3928 17.8104L1.30533 12.339C1.18256 12.2784 1.09073 12.1737 1.04679 12.044C1.00281 11.9144 1.01195 11.7754 1.07263 11.6525L1.08652 11.6243C1.2116 11.3709 1.51947 11.2665 1.77291 11.3915L12.8603 16.8629C13.1137 16.988 13.2182 17.2959 13.0931 17.5492ZM14.7705 10.7576C14.7639 10.771 14.0946 12.1367 13.5234 13.6578C13.1333 14.6967 12.9155 15.4655 12.8081 16.0421L2.54944 10.9797C2.91106 10.5713 3.34165 9.98329 3.85732 9.13757C4.55799 7.9886 5.15012 6.80024 5.44076 6.19415C5.44881 6.17735 5.45412 6.16627 5.45651 6.16142C6.09575 4.86602 7.18233 3.88846 8.51602 3.4089C9.8451 2.93095 11.2609 3.0052 12.5026 3.61801C13.7443 4.23074 14.6646 5.30927 15.0938 6.65487C15.5246 8.00519 15.4097 9.46224 14.7705 10.7576Z" fill="#222222" stroke="#222222" stroke-width="0.3"/>
<path d="M7.1463 6.20659C7.06752 6.20659 6.98828 6.18065 6.92229 6.12724C6.76922 6.00339 6.74549 5.77891 6.86931 5.62584C7.20326 5.213 7.59775 4.85666 8.04177 4.56673C8.20658 4.45904 8.42757 4.50545 8.53519 4.67033C8.64284 4.83521 8.59646 5.0561 8.43158 5.16375C8.04989 5.41297 7.71077 5.71933 7.42365 6.07426C7.35323 6.16135 7.25023 6.20659 7.1463 6.20659Z" fill="#222222" stroke="#222222" stroke-width="0.3"/>
<path d="M9.3226 4.69998C9.17266 4.69998 9.03316 4.60464 8.9839 4.45442C8.92255 4.26732 9.02454 4.06594 9.21165 4.00459C9.3471 3.96019 9.48639 3.92124 9.62565 3.88879C9.81739 3.84407 10.0091 3.96329 10.0537 4.15506C10.0984 4.34681 9.97922 4.53848 9.78747 4.5832C9.6685 4.61093 9.54946 4.64419 9.43376 4.68212C9.39685 4.69422 9.35941 4.69998 9.3226 4.69998Z" fill="#222222" stroke="#222222" stroke-width="0.3"/>
</svg>
