<svg width="18" height="17" viewBox="0 0 18 17" fill="none" xmlns="http://www.w3.org/2000/svg">
<path d="M14.4871 1.98467C14.361 1.98467 14.2349 1.98467 14.1052 1.98066C14.0692 1.98066 14.0368 1.98066 14.0008 1.97665C13.8999 1.97264 13.799 1.97264 13.6981 1.96863C13.6693 1.96863 13.6405 1.96863 13.6116 1.96462C13.4891 1.96061 13.363 1.95259 13.2405 1.94458C13.2153 1.94458 13.1937 1.94057 13.1685 1.94057C13.0568 1.93255 12.9451 1.92453 12.837 1.91651C10.3366 1.71203 8.4055 1.08255 6.92832 0.601415C5.9015 0.264623 5.09086 0 4.44594 0C3.257 0 2.14011 0.517217 1.30064 1.45141C0.461167 2.38561 0 3.63255 0 4.95566C0 7.03255 1.15292 8.81675 2.78502 9.55047L4.38469 16.1981H1.14932C0.951158 16.1981 0.789029 16.3785 0.789029 16.5991C0.789029 16.8196 0.951158 17 1.14932 17H4.85307H13.0712C13.2694 17 13.4315 16.8196 13.4315 16.5991C13.4315 16.3785 13.2694 16.1981 13.0712 16.1981H7.58765L7.69213 16.166C7.88308 16.1099 7.99837 15.8894 7.94793 15.6769L7.51559 13.8767C8.01639 13.4837 8.31903 12.8502 8.31903 12.1526C8.31903 11.054 7.55882 10.1479 6.59686 10.0517L6.45634 9.47429C6.61127 9.42618 6.76979 9.37406 6.93913 9.31792C8.41991 8.83278 10.3546 8.2033 12.8586 8.00283C12.9631 7.99481 13.064 7.98679 13.1685 7.97877C13.1973 7.97877 13.2261 7.97476 13.255 7.97476C13.3775 7.96674 13.4964 7.96274 13.6189 7.95472C13.6477 7.95472 13.6801 7.95071 13.7089 7.95071C13.8062 7.9467 13.9071 7.94269 14.0044 7.94269C14.0404 7.94269 14.0764 7.94269 14.1088 7.93868C14.2349 7.93467 14.361 7.93467 14.4871 7.93467C14.6853 7.93467 14.8474 7.75424 14.8474 7.53373V2.38561C14.8474 2.16108 14.6853 1.98467 14.4871 1.98467ZM14.0944 7.13278C14.0152 7.13278 13.9359 7.13679 13.8566 7.13679C13.817 7.13679 13.7774 7.1408 13.7377 7.1408C13.6873 7.1408 13.6369 7.14481 13.5864 7.14481C13.5396 7.14481 13.4964 7.14882 13.4495 7.15283C13.4063 7.15684 13.363 7.15684 13.3234 7.16085C13.273 7.16486 13.2225 7.16486 13.1721 7.16887C13.1613 7.16887 13.1505 7.16887 13.1397 7.16887V2.74245C13.1469 2.74245 13.1541 2.74245 13.1649 2.74245C13.2189 2.74646 13.273 2.75047 13.3306 2.75047C13.3703 2.75448 13.4063 2.75448 13.4459 2.75849C13.4927 2.7625 13.5396 2.7625 13.5864 2.76651C13.6369 2.77052 13.6837 2.77052 13.7341 2.77052C13.7738 2.77052 13.8134 2.77453 13.8566 2.77453C13.9359 2.77854 14.0152 2.77854 14.0908 2.77854C14.1016 2.77854 14.1124 2.77854 14.1233 2.77854V7.12877C14.116 7.13278 14.1052 7.13278 14.0944 7.13278ZM6.79862 10.9097C7.25978 11.0861 7.59485 11.5752 7.59485 12.1486C7.59485 12.4733 7.49037 12.7781 7.30662 13.0106L7.01119 11.7797L6.79862 10.9097ZM6.31583 12.0083L6.74457 13.7884V13.7925L7.1553 15.4925L5.10887 16.1059L3.59566 9.82311C3.61368 9.82712 3.62809 9.83113 3.64611 9.83514C3.65691 9.83514 3.66412 9.83915 3.67493 9.83915C3.70015 9.84316 3.72537 9.84717 3.75059 9.85519C3.7614 9.85519 3.77221 9.8592 3.78301 9.8592C3.80823 9.86321 3.83345 9.86722 3.85507 9.87123C3.86588 9.87123 3.88029 9.87523 3.8911 9.87523C3.91632 9.87924 3.94154 9.88325 3.96676 9.88325C3.97757 9.88325 3.99198 9.88726 4.00279 9.88726C4.02801 9.89127 4.05323 9.89127 4.08205 9.89528C4.09286 9.89528 4.10367 9.89929 4.11448 9.89929C4.1433 9.9033 4.17212 9.9033 4.20095 9.90731C4.20815 9.90731 4.21536 9.90731 4.22617 9.90731C4.2622 9.90731 4.29822 9.91132 4.33425 9.91132H4.33786C4.37749 9.91132 4.41352 9.91132 4.45315 9.91132C4.48918 9.91132 4.52521 9.91132 4.56123 9.90731C4.56844 9.90731 4.57565 9.90731 4.58645 9.90731C4.61888 9.90731 4.65491 9.9033 4.68734 9.89929C4.70175 9.89929 4.71616 9.89528 4.73057 9.89528C4.74858 9.89528 4.7702 9.89127 4.79182 9.88726C4.82424 9.88326 4.86027 9.87924 4.8963 9.87523C4.90711 9.87523 4.91432 9.87123 4.92512 9.87123C5.18093 9.83113 5.45835 9.76698 5.75739 9.67877L6.31583 12.0083ZM6.73016 8.5441C6.44193 8.63632 6.17172 8.72453 5.91952 8.80472H5.91591C5.59165 8.90495 5.26379 8.99717 4.96115 9.05731C4.95755 9.05731 4.95395 9.05731 4.95395 9.05731C4.92512 9.06132 4.8963 9.06934 4.86748 9.07335C4.86388 9.07335 4.86388 9.07335 4.86027 9.07335C4.81704 9.08137 4.7738 9.08538 4.73057 9.0934C4.71616 9.0934 4.69814 9.09741 4.68373 9.09741C4.66932 9.09741 4.65491 9.10141 4.6405 9.10141C4.61888 9.10141 4.59726 9.10542 4.57925 9.10542C4.56844 9.10542 4.55763 9.10542 4.54682 9.10542C4.5144 9.10542 4.48197 9.10943 4.45315 9.10943C4.44955 9.10943 4.44594 9.10943 4.44594 9.10943C4.40271 9.10943 4.35947 9.10943 4.31624 9.10542C4.30543 9.10542 4.29462 9.10542 4.28381 9.10542C4.24058 9.10141 4.19734 9.10141 4.15411 9.09741C4.1433 9.09741 4.13249 9.0934 4.12168 9.0934C4.07845 9.08939 4.03882 9.08538 3.99558 9.07736C3.98838 9.07736 3.98117 9.07335 3.97036 9.07335C3.93073 9.06934 3.8911 9.06132 3.85147 9.0533C3.83706 9.04929 3.82625 9.04929 3.81184 9.04528C3.77221 9.03726 3.73257 9.02925 3.69294 9.02123C3.67853 9.01722 3.66052 9.01321 3.64611 9.0092C3.61368 9.00118 3.58125 8.99316 3.54883 8.98514C3.52361 8.97712 3.49839 8.9691 3.47317 8.96509C3.45155 8.95708 3.43354 8.95307 3.41192 8.94505C1.86268 8.43986 0.72778 6.8441 0.72778 4.95566C0.72778 3.84505 1.11689 2.80259 1.81945 2.01675C2.51841 1.23491 3.45515 0.801887 4.45315 0.801887C4.99358 0.801887 5.76099 1.05047 6.73377 1.36722C8.17491 1.83632 10.034 2.44575 12.4263 2.68231V7.22901C10.0304 7.46958 8.17131 8.075 6.73016 8.5441Z" fill="#222222"/>
<path d="M4.26219 2.0448C2.86428 2.0448 1.72577 3.31178 1.72577 4.87145C1.72577 6.43112 2.86428 7.6981 4.26219 7.6981C5.6601 7.6981 6.79861 6.43112 6.79861 4.87145C6.79861 3.31579 5.6601 2.0448 4.26219 2.0448ZM4.26219 6.89621C3.26059 6.89621 2.44634 5.98607 2.44634 4.87145C2.44634 3.75282 3.26059 2.84669 4.26219 2.84669C5.26379 2.84669 6.07804 3.75683 6.07804 4.87145C6.07804 5.99008 5.26379 6.89621 4.26219 6.89621Z" fill="#222222"/>
<path d="M15.604 3.78492C15.6545 3.78492 15.7085 3.77289 15.759 3.74482L17.2542 2.95095C17.4343 2.85473 17.51 2.61817 17.4235 2.4177C17.337 2.21723 17.1245 2.13303 16.9443 2.22926L15.4491 3.02312C15.269 3.11935 15.1933 3.35591 15.2798 3.55638C15.341 3.70072 15.4707 3.78492 15.604 3.78492Z" fill="#222222"/>
<path d="M17.6468 4.58276L15.9427 4.54267C15.7445 4.53866 15.5788 4.71508 15.5752 4.93559C15.5716 5.15611 15.7301 5.34055 15.9283 5.34456L17.6324 5.38465C17.636 5.38465 17.636 5.38465 17.6396 5.38465C17.8342 5.38465 17.9963 5.21224 17.9999 4.99173C18.0035 4.77121 17.845 4.59078 17.6468 4.58276Z" fill="#222222"/>
<path d="M17.0452 6.96837L15.5932 6.10233C15.4167 5.99808 15.2005 6.07025 15.1068 6.26671C15.0132 6.46318 15.078 6.70374 15.2546 6.80799L16.7065 7.67403C16.7606 7.7061 16.8182 7.72214 16.8758 7.72214C17.0055 7.72214 17.128 7.64596 17.1929 7.50964C17.2866 7.31719 17.2217 7.07662 17.0452 6.96837Z" fill="#222222"/>
</svg>
