<svg width="25" height="21" viewBox="0 0 25 21" fill="none" xmlns="http://www.w3.org/2000/svg">
<path d="M17.4785 1.00044C15.5598 0.990213 13.7359 1.83099 12.5 3.29536C11.2718 1.82098 9.4428 0.977814 7.52148 1.00044C3.91975 1.00044 1 3.91378 1 7.50758C1 13.6662 11.7721 19.6795 12.2089 19.9119C12.3851 20.0294 12.6149 20.0294 12.7911 19.9119C13.2279 19.6795 24 13.7533 24 7.50758C24 3.91378 21.0802 1.00044 17.4785 1.00044ZM12.5 18.7499C10.8114 17.7622 2.16456 12.5042 2.16456 7.50758C2.16456 4.55555 4.56294 2.16238 7.52154 2.16238C9.3333 2.13864 11.0288 3.05048 12.0051 4.57351C12.2033 4.84624 12.5856 4.90702 12.859 4.70918C12.9112 4.67137 12.9571 4.62561 12.9949 4.57351C14.614 2.10278 17.934 1.40952 20.4101 3.02507C21.926 4.01408 22.8384 5.70036 22.8354 7.50752C22.8354 12.5622 14.1886 17.7912 12.5 18.7499Z" fill="#222222" stroke="#222222" stroke-width="0.3"/>
</svg>
