<svg width="18" height="18" viewBox="0 0 18 18" fill="none" xmlns="http://www.w3.org/2000/svg">
<path d="M13.1275 0H4.87243C2.18573 0 0 2.18573 0 4.87243V13.1277C0 15.8142 2.18573 18 4.87243 18H13.1277C15.8142 18 18 15.8142 18 13.1277V4.87243C18 2.18573 15.8142 0 13.1275 0V0ZM8.99998 13.9217C6.28609 13.9217 4.07825 11.7139 4.07825 8.99998C4.07825 6.28609 6.28609 4.07825 8.99998 4.07825C11.7139 4.07825 13.9217 6.28609 13.9217 8.99998C13.9217 11.7139 11.7139 13.9217 8.99998 13.9217ZM14.0394 5.23896C13.2374 5.23896 12.5851 4.58665 12.5851 3.78465C12.5851 2.98264 13.2374 2.3302 14.0394 2.3302C14.8414 2.3302 15.4938 2.98264 15.4938 3.78465C15.4938 4.58665 14.8414 5.23896 14.0394 5.23896Z" fill="#222222"/>
<path d="M9.00004 5.1333C6.86815 5.1333 5.13354 6.86776 5.13354 8.99979C5.13354 11.1317 6.86815 12.8663 9.00004 12.8663C11.1321 12.8663 12.8665 11.1317 12.8665 8.99979C12.8665 6.86776 11.1321 5.1333 9.00004 5.1333Z" fill="#222222"/>
<path d="M14.0395 3.38525C13.8195 3.38525 13.6404 3.56433 13.6404 3.78433C13.6404 4.00433 13.8195 4.18341 14.0395 4.18341C14.2596 4.18341 14.4387 4.00447 14.4387 3.78433C14.4387 3.56419 14.2596 3.38525 14.0395 3.38525Z" fill="#222222"/>
</svg>
