<svg width="20" height="23" viewBox="0 0 20 23" fill="none" xmlns="http://www.w3.org/2000/svg">
<path fill-rule="evenodd" clip-rule="evenodd" d="M13.7387 5.748C12.3035 7.40606 10.391 8.51068 7.98433 9.09428C7.12844 9.3198 7.84397 11.5287 8.55408 12.5204C9.5631 14.1978 8.94726 15.8763 7.0625 16.8725C4.43343 18.7132 7.6249 20.9073 3.31247 21.7511L2.04048 22C2.88509 20.9507 3.71509 20.311 2.04537 18.9618C0.0191098 17.4095 2.91132 16.908 1.49906 14.9548C-0.113292 13.2598 2.77717 13.7751 1.8675 12.0386C0.882874 10.1585 2.7728 10.0712 2.27441 8.90635C2.04415 7.91484 2.29391 7.03026 3.14648 6.32476C3.33284 6.04826 4.52639 -0.0903662 11.2766 1.17044C16.4319 2.13336 17.9659 8.21539 17.4995 9.37193C16.5576 11.7079 18.5119 11.6222 17.2003 13.3233C16.5112 14.2174 16.2715 15.436 17.9741 15.4915L18.968 15.5239L18.364 16.1746C16.4765 18.2076 10.67 16.7169 14.143 12.0615C15.171 9.83536 15.224 7.71892 13.7386 5.74786L13.7387 5.748ZM11.163 1.58569C14.3225 2.28414 16.9768 5.16253 17.0095 9.23822C16.6718 10.0761 16.5437 10.6113 16.834 11.375C17.3246 12.0118 17.1711 12.5695 16.7645 13.0956C15.6963 14.4824 16.0284 15.8537 17.9539 15.9165C16.4742 17.5103 11.4074 16.4992 14.6083 12.2508C15.9949 9.27667 15.4843 6.92744 13.7332 4.98677C12.2404 6.96985 10.2101 8.11134 7.8214 8.69098C6.78798 8.98484 6.8102 10.9094 8.10842 12.7352C8.95059 14.4181 8.42412 15.6583 6.75563 16.5293C3.76914 18.5892 7.13814 20.5655 3.19318 21.3376C3.85178 20.5191 3.53696 19.6207 2.40192 18.6545C0.675175 17.3317 3.58846 16.9359 1.90589 14.6874C0.541811 13.6288 3.39047 13.8779 2.34175 11.8703C1.98975 11.2045 2.08831 10.5402 2.67818 9.87618C3.00367 9.51731 2.94447 9.18631 2.78163 8.82664C2.55006 7.8293 2.8878 7.09622 3.61522 6.54322C4.75175 2.38422 7.4256 1.01923 11.1629 1.58576L11.163 1.58569Z" fill="#222222" stroke="#222222" stroke-width="0.4"/>
</svg>
