<svg width="14" height="14" viewBox="0 0 14 14" fill="none" xmlns="http://www.w3.org/2000/svg">
<g clip-path="url(#clip0)">
<path d="M13.8067 0.195051C13.5502 -0.0617617 13.134 -0.0617617 12.8775 0.195051L0.1968 12.8758C-0.0599033 13.1324 -0.0599033 13.5482 0.1968 13.8048C0.325097 13.9332 0.493315 13.9974 0.661425 13.9974C0.829534 13.9974 0.997753 13.9332 1.12594 13.8048L13.8067 1.12408C14.0634 0.867488 14.0634 0.451645 13.8067 0.195051Z" fill="#222222"/>
<path d="M3.12113 0.00598145C1.40022 0.00598145 0 1.40631 0 3.12722C0 4.84812 1.40022 6.24834 3.12113 6.24834C4.84214 6.24834 6.24225 4.84801 6.24225 3.12711C6.24225 1.4062 4.84203 0.00598145 3.12113 0.00598145ZM3.12113 4.93409C2.12472 4.93409 1.31414 4.1234 1.31414 3.12711C1.31414 2.13081 2.12483 1.32012 3.12113 1.32012C4.11753 1.32012 4.92811 2.13081 4.92811 3.12711C4.92811 4.1234 4.11753 4.93409 3.12113 4.93409Z" fill="#222222"/>
<path d="M10.8789 7.75458C9.15797 7.75458 7.75775 9.1548 7.75775 10.8757C7.75775 12.5966 9.15797 13.9968 10.8789 13.9968C12.5998 13.9968 14 12.5967 14 10.8757C14 9.15469 12.5998 7.75458 10.8789 7.75458ZM10.8789 12.6826C9.88247 12.6826 9.07189 11.8719 9.07189 10.8756C9.07189 9.8793 9.88258 9.06861 10.8789 9.06861C11.8752 9.06861 12.6859 9.8793 12.6859 10.8756C12.6859 11.8719 11.8753 12.6826 10.8789 12.6826Z" fill="#222222"/>
</g>
<defs>
<clipPath id="clip0">
<rect width="14" height="14" fill="white"/>
</clipPath>
</defs>
</svg>
