<svg width="17" height="19" viewBox="0 0 17 19" fill="none" xmlns="http://www.w3.org/2000/svg">
<path d="M15.253 7.64222L3.04824 0.696031C1.75362 -0.0430664 0.433716 0.765246 0.433716 2.21876V16.7196C0.433716 17.9511 1.23541 18.5126 1.98052 18.5126C2.33141 18.5126 2.68892 18.4019 3.04403 18.1858L15.3035 10.6817C15.9198 10.3031 16.2659 9.74275 16.2551 9.14388C16.2449 8.54442 15.8801 7.99672 15.253 7.64222ZM14.482 9.3413L2.22308 16.8436C2.14062 16.8942 2.07562 16.9194 2.03108 16.9321C2.01904 16.8876 2.00701 16.8189 2.00701 16.7196V2.21936C2.00701 2.0701 2.03409 1.99487 2.03409 1.97621C2.08224 1.97922 2.1665 2.0039 2.27243 2.06408L14.4754 9.01027C14.6258 9.09634 14.6704 9.17097 14.6848 9.15472C14.677 9.17518 14.6258 9.25162 14.482 9.3413Z" fill="#D6607E"/>
</svg>
