<svg width="19" height="19" viewBox="0 0 19 19" fill="none" xmlns="http://www.w3.org/2000/svg">
<g clip-path="url(#clip0)">
<path d="M18.9558 5.6038C18.8673 5.27346 18.6554 4.99734 18.3592 4.82632C18.1898 4.72846 18.0044 4.67175 17.8148 4.65768C17.9074 4.41014 17.9208 4.14066 17.8511 3.88028C17.7625 3.54994 17.5506 3.27382 17.2545 3.10281C17.0908 3.00832 16.9123 2.95216 16.7295 2.93576L16.7374 2.9221C16.9084 2.62594 16.9538 2.28087 16.8653 1.95053C16.7768 1.62019 16.5649 1.34407 16.2687 1.17309C15.9726 1.00211 15.6276 0.95661 15.2971 1.04516C14.9668 1.13368 14.6907 1.34555 14.5197 1.64171L14.5114 1.65608C14.4077 1.50833 14.271 1.38029 14.1047 1.28424C13.4932 0.931225 12.7087 1.14143 12.3556 1.7529L10.6011 4.79181C10.3683 4.4706 9.99028 4.2611 9.56411 4.2611C9.36504 4.2611 9.17647 4.30674 9.00823 4.38817C8.90643 3.78327 8.37899 3.32092 7.74555 3.32092C7.55345 3.32092 7.37112 3.36345 7.20741 3.43957V3.42298C7.20741 2.71698 6.63302 2.14259 5.92702 2.14259C5.22102 2.14259 4.64663 2.71698 4.64663 3.42298V3.43957C4.48292 3.36345 4.30059 3.32092 4.10849 3.32092C3.4025 3.32092 2.8281 3.89531 2.8281 4.60131V9.72484L2.40932 9.27785C1.88752 8.72094 1.00679 8.68902 0.446131 9.20678C-0.0590855 9.67333 -0.146746 10.4527 0.242344 11.0198C0.9882 12.1069 1.83894 13.1306 2.77102 14.0627L2.82818 14.1199L2.82814 17.628C2.82814 17.7264 2.86726 17.8208 2.93684 17.8904C3.00647 17.96 3.10085 17.9991 3.19927 17.9991H9.56411C9.76905 17.9991 9.93524 17.8329 9.93524 17.628V15.8259L11.4903 16.7238C11.5488 16.7575 11.6125 16.7735 11.6755 16.7735C11.8038 16.7735 11.9285 16.707 11.9973 16.5879L13.4354 14.097C14.1479 13.5835 14.7929 12.9804 15.3531 12.3036C15.4837 12.1457 15.4617 11.9117 15.3038 11.781C15.1459 11.6503 14.912 11.6724 14.7813 11.8303C14.2452 12.478 13.6255 13.0529 12.9396 13.539C12.8959 13.5699 12.8595 13.61 12.8328 13.6563L11.54 15.8954L9.93524 14.9689V14.7518C10.5387 13.411 10.8445 11.9858 10.8445 10.5138V5.85483L12.9985 2.12407C13.1468 1.86714 13.4766 1.77873 13.7336 1.92707C13.9897 2.07497 14.0784 2.40312 13.932 2.65975L11.5306 6.81906C11.4281 6.99657 11.4889 7.22355 11.6664 7.32602C11.8439 7.42852 12.0709 7.3677 12.1734 7.19019L15.1625 2.01288C15.3109 1.75591 15.6406 1.66754 15.8976 1.81592C16.0221 1.88781 16.1111 2.00382 16.1483 2.14266C16.1855 2.2815 16.1664 2.42654 16.0946 2.55101L13.1055 7.72836C13.003 7.90587 13.0638 8.13285 13.2413 8.23532C13.4189 8.33786 13.6458 8.277 13.7483 8.09948L16.1482 3.94263C16.2201 3.81815 16.3362 3.72912 16.475 3.6919C16.6139 3.65467 16.7589 3.67379 16.8833 3.74564C17.0078 3.81752 17.0969 3.93354 17.1341 4.07241C17.1713 4.21125 17.1522 4.35625 17.0803 4.48077L14.6803 8.63758C14.5778 8.81509 14.6387 9.04208 14.8162 9.14454C14.9937 9.24701 15.2206 9.18622 15.3231 9.00871L17.2545 5.66355C17.3264 5.54041 17.4419 5.4523 17.5798 5.41534C17.7187 5.37812 17.8637 5.39723 17.9881 5.46908C18.1126 5.54097 18.2017 5.65702 18.2389 5.79586C18.2761 5.9347 18.257 6.0797 18.1851 6.20421L16.534 9.06408C16.4315 9.24159 16.4923 9.46858 16.6698 9.57104C16.7282 9.60478 16.792 9.62081 16.855 9.62081C16.9833 9.62081 17.108 9.55427 17.1768 9.43521L18.8279 6.57534C18.9989 6.27918 19.0443 5.93414 18.9558 5.6038ZM10.1022 10.5137C10.1022 11.9052 9.80772 13.2519 9.22687 14.5164C9.20452 14.565 9.19298 14.6178 9.19298 14.6713V17.2568H3.5704L3.57043 13.9662C3.57043 13.8677 3.53132 13.7733 3.46169 13.7037L3.29584 13.5379C2.39592 12.638 1.57447 11.6495 0.854408 10.5999C0.672482 10.3348 0.713417 9.9703 0.949677 9.75215C1.21192 9.51007 1.62372 9.52499 1.86762 9.78541L2.92385 10.9127C2.99181 10.9879 3.09008 11.0351 3.19938 11.0351C3.34727 11.0351 3.4811 10.9472 3.53993 10.8115C3.56197 10.7607 3.57188 10.7067 3.57036 10.6534V4.60138C3.57036 4.30467 3.81178 4.06325 4.10849 4.06325C4.40521 4.06325 4.64663 4.30467 4.64663 4.60138V9.40129C4.64663 9.60626 4.81282 9.77242 5.01776 9.77242C5.22273 9.77242 5.38889 9.60626 5.38889 9.40129V3.42301C5.38889 3.1263 5.6303 2.88488 5.92702 2.88488C6.22374 2.88488 6.46516 3.1263 6.46516 3.42301V9.40125C6.46516 9.60623 6.63135 9.77238 6.83628 9.77238C7.04126 9.77238 7.20741 9.60623 7.20741 9.40125V4.60135C7.20741 4.30463 7.44883 4.06321 7.74555 4.06321C8.04226 4.06321 8.28368 4.30463 8.28368 4.60135V9.40125C8.28368 9.60623 8.44987 9.77238 8.65481 9.77238C8.85978 9.77238 9.02594 9.60623 9.02594 9.40125V5.54152C9.02594 5.24481 9.26736 5.00339 9.56407 5.00339C9.86079 5.00339 10.1022 5.24481 10.1022 5.54152V10.5137H10.1022Z" fill="#222222"/>
<path d="M16.0205 10.3249C15.9225 10.3249 15.8271 10.3642 15.7581 10.4336C15.6887 10.5027 15.6494 10.598 15.6494 10.696C15.6494 10.7936 15.6887 10.8894 15.7581 10.9584C15.8271 11.0274 15.9225 11.0671 16.0205 11.0671C16.1181 11.0671 16.2138 11.0274 16.2829 10.9584C16.3519 10.889 16.3916 10.7936 16.3916 10.696C16.3916 10.5984 16.3519 10.5027 16.2829 10.4336C16.2138 10.3642 16.1181 10.3249 16.0205 10.3249Z" fill="#222222"/>
</g>
<defs>
<clipPath id="clip0">
<rect width="19" height="19" fill="white"/>
</clipPath>
</defs>
</svg>
