<svg width="21" height="24" viewBox="0 0 21 24" fill="none" xmlns="http://www.w3.org/2000/svg">
<path d="M20.278 24H0.722176C0.517438 24 0.322512 23.9141 0.185526 23.7636C0.048541 23.6133 -0.0173602 23.4124 0.00392815 23.2112L1.84805 5.84052C1.88674 5.47687 2.19662 5.20075 2.5663 5.20075H18.4338C18.8033 5.20075 19.1134 5.47687 19.1519 5.84052L20.996 23.2112C21.0175 23.4124 20.9514 23.6133 20.8146 23.7636C20.6774 23.9141 20.4825 24 20.278 24Z" fill="#222222"/>
<path d="M19.1519 5.84052C19.1134 5.47687 18.8033 5.20075 18.4338 5.20075H10.4998V24H20.278C20.4825 24 20.6774 23.9141 20.8146 23.7636C20.9514 23.6133 21.0175 23.4124 20.996 23.2112L19.1519 5.84052Z" fill="#222222"/>
<path d="M14.2456 8.9176C13.8467 8.9176 13.5235 8.5979 13.5235 8.20331V4.41907C13.5235 2.7702 12.1671 1.42859 10.5 1.42859C8.83283 1.42859 7.47668 2.7702 7.47668 4.41907V8.20349C7.47668 8.5979 7.15328 8.91779 6.75454 8.91779C6.35562 8.91779 6.03241 8.5979 6.03241 8.20349V4.41907C6.03241 1.98248 8.03647 0 10.5 0C12.9635 0 14.9677 1.98248 14.9677 4.41907V8.20349C14.9677 8.5979 14.6443 8.9176 14.2456 8.9176Z" fill="#222222"/>
<path d="M10.5 0V1.42859C12.1671 1.42859 13.5235 2.7702 13.5235 4.41907V8.20331C13.5235 8.5979 13.8467 8.9176 14.2456 8.9176C14.6443 8.9176 14.9677 8.5979 14.9677 8.20349V4.41907C14.9677 1.98248 12.9635 0 10.5 0Z" fill="#222222"/>
</svg>
