<svg width="20" height="22" viewBox="0 0 20 22" fill="none" xmlns="http://www.w3.org/2000/svg">
<path d="M10.6667 2V1.33333C10.6667 1.24493 10.6315 1.16014 10.569 1.09763C10.5065 1.03512 10.4217 1 10.3333 1C10.2449 1 10.1601 1.03512 10.0976 1.09763C10.0351 1.16014 10 1.24493 10 1.33333V2C10 2.08841 10.0351 2.17319 10.0976 2.2357C10.1601 2.29821 10.2449 2.33333 10.3333 2.33333C10.4217 2.33333 10.5065 2.29821 10.569 2.2357C10.6315 2.17319 10.6667 2.08841 10.6667 2Z" fill="#222222" stroke="#222222" stroke-width="0.2"/>
<path d="M6.33333 19.6667C6.24493 19.6667 6.16014 19.7018 6.09763 19.7643C6.03512 19.8268 6 19.9116 6 20V20.6667C6 20.7551 6.03512 20.8399 6.09763 20.9024C6.16014 20.9649 6.24493 21 6.33333 21C6.42174 21 6.50652 20.9649 6.56904 20.9024C6.63155 20.8399 6.66667 20.7551 6.66667 20.6667V20C6.66667 19.9116 6.63155 19.8268 6.56904 19.7643C6.50652 19.7018 6.42174 19.6667 6.33333 19.6667Z" fill="#222222" stroke="#222222" stroke-width="0.2"/>
<path d="M8.56899 18.0977C8.50613 18.0369 8.42193 18.0033 8.33453 18.0041C8.24713 18.0049 8.16352 18.0399 8.10172 18.1017C8.03992 18.1635 8.00486 18.2471 8.0041 18.3345C8.00334 18.4219 8.03694 18.5061 8.09766 18.569L8.76433 19.2357C8.82719 19.2964 8.91139 19.33 8.99879 19.3292C9.08619 19.3285 9.1698 19.2934 9.2316 19.2316C9.2934 19.1698 9.32846 19.0862 9.32922 18.9988C9.32998 18.9114 9.29638 18.8272 9.23566 18.7643L8.56899 18.0977Z" fill="#222222" stroke="#222222" stroke-width="0.2"/>
<path d="M4.09765 18.0977L3.43099 18.7643C3.39915 18.7951 3.37376 18.8319 3.35629 18.8725C3.33882 18.9132 3.32962 18.9569 3.32924 19.0012C3.32885 19.0455 3.33729 19.0893 3.35405 19.1303C3.37081 19.1713 3.39556 19.2085 3.42685 19.2398C3.45815 19.2711 3.49537 19.2958 3.53634 19.3126C3.5773 19.3294 3.62119 19.3378 3.66545 19.3374C3.70971 19.337 3.75345 19.3278 3.79412 19.3104C3.83479 19.2929 3.87157 19.2675 3.90232 19.2357L4.56899 18.569C4.62971 18.5061 4.6633 18.4219 4.66254 18.3345C4.66179 18.2471 4.62673 18.1635 4.56493 18.1017C4.50312 18.0399 4.41952 18.0049 4.33212 18.0041C4.24472 18.0033 4.16052 18.0369 4.09765 18.0977Z" fill="#222222" stroke="#222222" stroke-width="0.2"/>
<path d="M14.3333 19.6667C14.2449 19.6667 14.1601 19.7018 14.0976 19.7643C14.0351 19.8268 14 19.9116 14 20V20.6667C14 20.7551 14.0351 20.8399 14.0976 20.9024C14.1601 20.9649 14.2449 21 14.3333 21C14.4217 21 14.5065 20.9649 14.569 20.9024C14.6315 20.8399 14.6667 20.7551 14.6667 20.6667V20C14.6667 19.9116 14.6315 19.8268 14.569 19.7643C14.5065 19.7018 14.4217 19.6667 14.3333 19.6667Z" fill="#222222" stroke="#222222" stroke-width="0.2"/>
<path d="M16.569 18.0977C16.5061 18.0369 16.4219 18.0033 16.3345 18.0041C16.2471 18.0049 16.1635 18.0399 16.1017 18.1017C16.0399 18.1635 16.0049 18.2471 16.0041 18.3345C16.0033 18.4219 16.0369 18.5061 16.0977 18.569L16.7643 19.2357C16.8272 19.2964 16.9114 19.33 16.9988 19.3292C17.0862 19.3285 17.1698 19.2934 17.2316 19.2316C17.2934 19.1698 17.3285 19.0862 17.3292 18.9988C17.33 18.9114 17.2964 18.8272 17.2357 18.7643L16.569 18.0977Z" fill="#222222" stroke="#222222" stroke-width="0.2"/>
<path d="M12.0977 18.0977L11.431 18.7643C11.3991 18.7951 11.3738 18.8319 11.3563 18.8725C11.3388 18.9132 11.3296 18.9569 11.3292 19.0012C11.3289 19.0455 11.3373 19.0893 11.354 19.1303C11.3708 19.1713 11.3956 19.2085 11.4269 19.2398C11.4582 19.2711 11.4954 19.2958 11.5363 19.3126C11.5773 19.3294 11.6212 19.3378 11.6655 19.3374C11.7097 19.337 11.7535 19.3278 11.7941 19.3104C11.8348 19.2929 11.8716 19.2675 11.9023 19.2357L12.569 18.569C12.6297 18.5061 12.6633 18.4219 12.6625 18.3345C12.6618 18.2471 12.6267 18.1635 12.5649 18.1017C12.5031 18.0399 12.4195 18.0049 12.3321 18.0041C12.2447 18.0033 12.1605 18.0369 12.0977 18.0977Z" fill="#222222" stroke="#222222" stroke-width="0.2"/>
<path d="M6.89 14.3333H5.77667C5.56667 14.4976 5 15.0063 5 15.6666C5 16.4243 5.954 17.9333 6.33333 18.2856C6.71267 17.9333 7.66667 16.4243 7.66667 15.6666C7.66667 15.0063 7.1 14.4976 6.89 14.3333ZM6.49 16.8203C6.44223 16.8452 6.38919 16.8582 6.33533 16.8583C6.27452 16.8584 6.21486 16.8418 6.1628 16.8103C6.11074 16.7789 6.06828 16.7338 6.04 16.68C5.85849 16.371 5.73269 16.0325 5.66833 15.68C5.6815 15.4689 5.77039 15.2697 5.91867 15.119C5.94659 15.0844 5.98113 15.0558 6.02026 15.0348C6.05939 15.0138 6.10232 15.0009 6.14654 14.9967C6.19075 14.9925 6.23535 14.9972 6.27772 15.0105C6.3201 15.0238 6.35938 15.0454 6.39328 15.0741C6.42717 15.1028 6.45499 15.138 6.4751 15.1776C6.4952 15.2172 6.5072 15.2604 6.51037 15.3047C6.51354 15.349 6.50783 15.3935 6.49357 15.4356C6.47931 15.4776 6.45679 15.5164 6.42733 15.5496C6.39335 15.5883 6.36362 15.6306 6.33867 15.6756C6.40657 15.9186 6.50443 16.1522 6.63 16.371C6.67077 16.4493 6.67879 16.5406 6.65229 16.6249C6.62579 16.7091 6.56694 16.7794 6.48867 16.8203H6.49Z" fill="#222222" stroke="#222222" stroke-width="0.2"/>
<path d="M6.337 13C6.22434 12.9992 6.11181 12.9919 6 12.978V13.6667H6.66667V12.9787C6.55726 12.992 6.4472 12.9991 6.337 13Z" fill="#222222" stroke="#222222" stroke-width="0.2"/>
<path d="M9.77667 7.66669H10.89C11.1 7.50236 11.6667 6.99369 11.6667 6.33336C11.6667 5.57569 10.7127 4.06836 10.3333 3.71436C9.954 4.06836 9 5.57569 9 6.33336C9 6.99369 9.56667 7.50236 9.77667 7.66669ZM10.1767 5.17969C10.255 5.13863 10.3463 5.13035 10.4307 5.15667C10.5151 5.18298 10.5856 5.24174 10.6267 5.32002C10.8082 5.62901 10.934 5.96749 10.9983 6.32002C10.9852 6.53107 10.8963 6.73027 10.748 6.88102C10.7201 6.91556 10.6855 6.94417 10.6464 6.96517C10.6073 6.98617 10.5643 6.99914 10.5201 7.00332C10.4759 7.00749 10.4313 7.00279 10.3889 6.98949C10.3466 6.97619 10.3073 6.95456 10.2734 6.92586C10.2395 6.89716 10.2117 6.86198 10.1916 6.82239C10.1715 6.78279 10.1595 6.73957 10.1563 6.69528C10.1531 6.65098 10.1588 6.60649 10.1731 6.56443C10.1874 6.52238 10.2099 6.48359 10.2393 6.45036C10.2733 6.41166 10.303 6.36941 10.328 6.32436C10.2601 6.08139 10.1622 5.84782 10.0367 5.62902C9.99589 5.55068 9.98788 5.45936 10.0144 5.37512C10.0409 5.29087 10.0997 5.22058 10.178 5.17969H10.1767Z" fill="#222222" stroke="#222222" stroke-width="0.2"/>
<path d="M19.411 9.795C19.0598 9.70405 18.698 9.66088 18.3353 9.66667C16.9213 9.66667 16.1743 10.414 15.6287 10.9597C15.1387 11.45 14.898 11.6667 14.3363 11.6667C13.7747 11.6667 13.534 11.45 13.0433 10.9597C12.4977 10.4137 11.7503 9.66667 10.336 9.66667C8.92167 9.66667 8.175 10.414 7.62933 10.9597C7.139 11.45 6.9 11.6667 6.337 11.6667C5.774 11.6667 5.53367 11.45 5.043 10.9593C4.49733 10.4137 3.75 9.66667 2.335 9.66667C1.97168 9.66078 1.60922 9.70372 1.25733 9.79434C1.18318 9.81544 1.11794 9.86016 1.0715 9.9217C1.02506 9.98323 0.999956 10.0582 1 10.1353C1.00012 10.1928 1.01395 10.2493 1.04033 10.3004C1.06671 10.3514 1.10488 10.3954 1.15167 10.4287C1.19315 10.4595 1.24151 10.4797 1.29256 10.4876C1.34361 10.4955 1.39582 10.4908 1.44467 10.474C1.7315 10.3777 2.03245 10.3302 2.335 10.3333C3.47367 10.3333 4.057 10.9163 4.57167 11.431C5.056 11.915 5.47467 12.3333 6.337 12.3333C7.19933 12.3333 7.617 11.915 8.101 11.431C8.61533 10.9163 9.2 10.3333 10.336 10.3333C11.472 10.3333 12.0573 10.9163 12.572 11.431C13.056 11.915 13.4743 12.3333 14.3363 12.3333C15.1983 12.3333 15.6163 11.915 16.1003 11.431C16.6147 10.9163 17.1977 10.3333 18.3353 10.3333C18.6376 10.3299 18.9382 10.3774 19.2247 10.474C19.2732 10.4905 19.3251 10.495 19.3757 10.4871C19.4264 10.4792 19.4744 10.4592 19.5157 10.4287C19.5623 10.3955 19.6003 10.3517 19.6265 10.301C19.6528 10.2502 19.6665 10.1938 19.6667 10.1367C19.6672 10.0596 19.6425 9.98452 19.5963 9.92283C19.5501 9.86114 19.4851 9.81625 19.411 9.795Z" fill="#222222" stroke="#222222" stroke-width="0.2"/>
<path d="M14.3363 13C14.2239 12.9991 14.1116 12.9919 14 12.9783V13.6667H14.6667V12.9787C14.557 12.9919 14.4468 12.9991 14.3363 13Z" fill="#222222" stroke="#222222" stroke-width="0.2"/>
<path d="M14.89 14.3333H13.7767C13.5667 14.4976 13 15.0063 13 15.6666C13 16.4243 13.954 17.9333 14.3333 18.2856C14.7127 17.9333 15.6667 16.4243 15.6667 15.6666C15.6667 15.0063 15.1 14.4976 14.89 14.3333ZM14.49 16.8203C14.4422 16.8452 14.3892 16.8582 14.3353 16.8583C14.2745 16.8584 14.2149 16.8418 14.1628 16.8103C14.1107 16.7789 14.0683 16.7338 14.04 16.68C13.8585 16.371 13.7327 16.0325 13.6683 15.68C13.6815 15.4689 13.7704 15.2697 13.9187 15.119C13.9466 15.0844 13.9811 15.0558 14.0203 15.0348C14.0594 15.0138 14.1023 15.0009 14.1465 14.9967C14.1908 14.9925 14.2354 14.9972 14.2777 15.0105C14.3201 15.0238 14.3594 15.0454 14.3933 15.0741C14.4272 15.1028 14.455 15.138 14.4751 15.1776C14.4952 15.2172 14.5072 15.2604 14.5104 15.3047C14.5135 15.349 14.5078 15.3935 14.4936 15.4356C14.4793 15.4776 14.4568 15.5164 14.4273 15.5496C14.3933 15.5883 14.3636 15.6306 14.3387 15.6756C14.4066 15.9186 14.5044 16.1522 14.63 16.371C14.6708 16.4493 14.6788 16.5406 14.6523 16.6249C14.6258 16.7091 14.5669 16.7794 14.4887 16.8203H14.49Z" fill="#222222" stroke="#222222" stroke-width="0.2"/>
<path d="M10.336 8.99998C10.45 8.99998 10.5597 9.00498 10.6667 9.01298V8.33331H10V9.01365C10.1087 9.00531 10.2203 8.99998 10.336 8.99998Z" fill="#222222" stroke="#222222" stroke-width="0.2"/>
<path d="M8.09764 3.56897C8.16051 3.62969 8.24471 3.66329 8.33211 3.66253C8.41951 3.66177 8.50311 3.62672 8.56491 3.56491C8.62672 3.50311 8.66177 3.41951 8.66253 3.33211C8.66329 3.24471 8.62969 3.16051 8.56897 3.09764L7.90231 2.43097C7.83944 2.37025 7.75524 2.33666 7.66784 2.33741C7.58044 2.33817 7.49684 2.37323 7.43503 2.43503C7.37323 2.49684 7.33817 2.58044 7.33741 2.66784C7.33666 2.75524 7.37025 2.83944 7.43097 2.90231L8.09764 3.56897Z" fill="#222222" stroke="#222222" stroke-width="0.2"/>
<path d="M12.3333 3.66665C12.4217 3.66663 12.5065 3.6315 12.569 3.56899L13.2357 2.90232C13.2675 2.87157 13.2929 2.83479 13.3104 2.79412C13.3278 2.75345 13.337 2.70971 13.3374 2.66545C13.3378 2.62119 13.3294 2.5773 13.3126 2.53634C13.2958 2.49537 13.2711 2.45815 13.2398 2.42685C13.2085 2.39556 13.1713 2.37081 13.1303 2.35405C13.0893 2.33729 13.0454 2.32885 13.0012 2.32924C12.9569 2.32962 12.9132 2.33882 12.8725 2.35629C12.8319 2.37376 12.7951 2.39915 12.7643 2.43099L12.0977 3.09765C12.0511 3.14427 12.0193 3.20366 12.0065 3.26831C11.9936 3.33296 12.0002 3.39997 12.0254 3.46087C12.0507 3.52177 12.0934 3.57383 12.1482 3.61045C12.203 3.64708 12.2674 3.66664 12.3333 3.66665Z" fill="#222222" stroke="#222222" stroke-width="0.2"/>
<path d="M6.66665 5.99998H7.33331C7.42172 5.99998 7.5065 5.96486 7.56902 5.90235C7.63153 5.83984 7.66665 5.75505 7.66665 5.66665C7.66665 5.57824 7.63153 5.49346 7.56902 5.43094C7.5065 5.36843 7.42172 5.33331 7.33331 5.33331H6.66665C6.57824 5.33331 6.49346 5.36843 6.43094 5.43094C6.36843 5.49346 6.33331 5.57824 6.33331 5.66665C6.33331 5.75505 6.36843 5.83984 6.43094 5.90235C6.49346 5.96486 6.57824 5.99998 6.66665 5.99998Z" fill="#222222" stroke="#222222" stroke-width="0.2"/>
<path d="M13 5.66665C13 5.75505 13.0351 5.83984 13.0976 5.90235C13.1601 5.96486 13.2449 5.99998 13.3333 5.99998H14C14.0884 5.99998 14.1732 5.96486 14.2357 5.90235C14.2982 5.83984 14.3333 5.75505 14.3333 5.66665C14.3333 5.57824 14.2982 5.49346 14.2357 5.43094C14.1732 5.36843 14.0884 5.33331 14 5.33331H13.3333C13.2449 5.33331 13.1601 5.36843 13.0976 5.43094C13.0351 5.49346 13 5.57824 13 5.66665Z" fill="#222222" stroke="#222222" stroke-width="0.2"/>
<path d="M3.33331 15.6667H2.66665C2.57824 15.6667 2.49346 15.7018 2.43094 15.7643C2.36843 15.8268 2.33331 15.9116 2.33331 16C2.33331 16.0884 2.36843 16.1732 2.43094 16.2357C2.49346 16.2982 2.57824 16.3334 2.66665 16.3334H3.33331C3.42172 16.3334 3.5065 16.2982 3.56902 16.2357C3.63153 16.1732 3.66665 16.0884 3.66665 16C3.66665 15.9116 3.63153 15.8268 3.56902 15.7643C3.5065 15.7018 3.42172 15.6667 3.33331 15.6667Z" fill="#222222" stroke="#222222" stroke-width="0.2"/>
<path d="M18 15.6667H17.3333C17.2449 15.6667 17.1601 15.7018 17.0976 15.7643C17.0351 15.8268 17 15.9116 17 16C17 16.0884 17.0351 16.1732 17.0976 16.2357C17.1601 16.2982 17.2449 16.3334 17.3333 16.3334H18C18.0884 16.3334 18.1732 16.2982 18.2357 16.2357C18.2982 16.1732 18.3333 16.0884 18.3333 16C18.3333 15.9116 18.2982 15.8268 18.2357 15.7643C18.1732 15.7018 18.0884 15.6667 18 15.6667Z" fill="#222222" stroke="#222222" stroke-width="0.2"/>
</svg>
