<svg width="21" height="21" viewBox="0 0 21 21" fill="none" xmlns="http://www.w3.org/2000/svg">
<path d="M20.987 20.4565L20.4619 18.3566C20.2128 17.3378 19.4576 16.5185 18.4625 16.1875L14.6124 14.9047C13.6735 14.5136 13.2439 13.0016 13.1511 12.4276C13.8665 11.8327 14.3268 10.9863 14.4374 10.0624C14.4216 9.90466 14.4588 9.74609 14.5432 9.61181C14.6797 9.57764 14.7913 9.47995 14.8433 9.34931C15.0953 8.73933 15.2534 8.09473 15.3124 7.43746C15.3125 7.40173 15.3081 7.36617 15.2992 7.3316C15.2366 7.07619 15.0864 6.85081 14.8749 6.69458V4.37496C14.8749 2.96534 14.4443 2.38698 13.9911 2.05184C13.9045 1.37287 13.1774 0 10.4998 0C8.12423 0.0956481 6.22032 1.9995 6.12467 4.375V6.69463C5.9131 6.85085 5.76294 7.07623 5.70027 7.33164C5.69141 7.36621 5.68702 7.40181 5.68714 7.4375C5.74604 8.0951 5.90416 8.73999 6.15617 9.35025C6.19407 9.47392 6.29345 9.56903 6.41868 9.60139C6.46769 9.62588 6.55957 9.75278 6.55957 10.0625C6.67077 10.989 7.13376 11.8373 7.85287 12.432C7.76099 13.0051 7.33396 14.5163 6.42134 14.8978L2.5371 16.1875C1.54273 16.5185 0.788024 17.337 0.538561 18.3549L0.0135465 20.4549C-0.0458867 20.6891 0.095785 20.9271 0.329991 20.9865C0.364978 20.9954 0.400949 21 0.437044 21H20.5626C20.8042 20.9999 21 20.804 21 20.5624C21 20.5266 20.9956 20.4911 20.987 20.4565Z" fill="#222222"/>
</svg>
