<svg width="21" height="17" viewBox="0 0 21 17" fill="none" xmlns="http://www.w3.org/2000/svg">
<path d="M19.9278 3.37619C19.701 2.41228 19.036 1.65244 18.1927 1.39288C16.6521 0.911133 10.4895 0.911133 10.4895 0.911133C10.4895 0.911133 4.32719 0.911133 2.78658 1.37462C1.9595 1.6339 1.27829 2.41241 1.05143 3.37619C0.645996 5.13675 0.645996 8.78792 0.645996 8.78792C0.645996 8.78792 0.645996 12.4575 1.05143 14.1996C1.27853 15.1634 1.94328 15.9233 2.7867 16.1828C4.34341 16.6647 10.4897 16.6647 10.4897 16.6647C10.4897 16.6647 16.6521 16.6647 18.1927 16.2012C19.0361 15.9418 19.701 15.182 19.9281 14.2182C20.3334 12.4575 20.3334 8.80646 20.3334 8.80646C20.3334 8.80646 20.3496 5.13675 19.9278 3.37619ZM8.52748 12.161V5.41484L13.652 8.78792L8.52748 12.161Z" fill="#222222"/>
</svg>
