<svg width="18" height="21" viewBox="0 0 18 21" fill="none" xmlns="http://www.w3.org/2000/svg">
<path d="M15.7596 9.8038C15.6457 9.67714 15.5563 9.57819 15.5136 9.52871C15.3448 9.3308 15.3428 8.7826 15.5136 8.50553C15.7169 8.17107 14.9809 6.63334 14.4847 5.66954C14.6881 5.51319 15.1069 5.17081 15.1069 4.84229C15.1105 4.76939 15.118 4.69673 15.1293 4.62459C15.1923 4.13774 15.3082 3.23924 14.4685 2.51491C13.5148 1.69755 12.6914 1.76484 12.0285 1.83411C11.3311 1.53923 9.71868 0.90197 8.78336 1.0128C8.57457 1.03675 8.36966 1.08595 8.17337 1.15925C7.78298 1.08602 5.03396 0.644692 3.96444 2.58417C3.70262 2.83905 3.40479 3.0563 3.07996 3.22935C2.5635 3.45694 1.56515 4.49397 1.54278 5.59235C1.41469 5.81994 0.729464 7.10831 1.11782 8.18097C1.21589 8.47775 1.25049 8.79094 1.21949 9.10123C1.19712 9.72266 1.16662 10.4866 2.19344 12.3093C2.18568 12.3605 2.18568 12.4125 2.19344 12.4637C2.3634 13.2935 2.83654 14.0352 3.52525 14.5516C3.52525 14.8564 3.62692 15.9013 4.6639 16.3604C4.57335 16.8453 4.42669 17.3187 4.22674 17.7715C4.07627 18.1139 4.22674 18.484 4.61103 18.7373C6.44303 19.9406 8.70813 19.9999 10.7536 19.9999H11.0912C11.1922 20.0013 11.2923 19.9806 11.3841 19.9396C11.4759 19.8985 11.5571 19.838 11.6218 19.7625C11.673 19.7008 11.7097 19.629 11.7294 19.5521C11.749 19.4751 11.7512 19.395 11.7357 19.3172C11.8577 18.2109 12.3803 17.6706 12.5023 17.5558C12.6893 17.5261 13.4965 17.4034 14.7206 17.2609C15.0142 17.24 15.2953 17.1364 15.5296 16.9629C15.7639 16.7893 15.9413 16.5532 16.0402 16.2833C16.2212 15.8004 16.1683 15.2165 15.9162 14.9533C15.8379 14.8822 15.7833 14.7898 15.7596 14.6881C15.7614 14.673 15.7614 14.6577 15.7596 14.6426C15.7627 14.6243 15.7696 14.6068 15.7799 14.5912C16.2334 14.3655 16.1866 13.8688 16.091 13.568C16.2214 13.4298 16.2902 13.2468 16.2822 13.0594C16.2481 12.7908 16.1187 12.5422 15.9162 12.3568C16.0483 12.2559 16.1968 12.1589 16.3411 12.056C16.7275 11.7928 16.9511 11.6364 16.9938 11.4781C17.0365 11.3198 16.882 11.0486 15.7596 9.8038ZM11.4429 19.3092C11.4404 19.3243 11.4404 19.3397 11.4429 19.3548C11.4531 19.3939 11.4538 19.4349 11.445 19.4744C11.4362 19.5139 11.4181 19.5508 11.3921 19.5824C11.3548 19.6241 11.3085 19.6573 11.2565 19.6796C11.2044 19.7018 11.148 19.7125 11.0912 19.711C9.00092 19.711 6.6362 19.711 4.7737 18.4998C4.67406 18.4345 4.36704 18.197 4.49513 17.8843C4.69486 17.4256 4.8428 16.9472 4.93636 16.4574L5.02176 16.4812C5.04443 16.4873 5.06828 16.488 5.09129 16.4832C5.1143 16.4785 5.13579 16.4684 5.15395 16.4538C5.1721 16.4392 5.18638 16.4206 5.19558 16.3996C5.20478 16.3785 5.20862 16.3556 5.20679 16.3327C5.16821 15.9046 5.10028 15.4795 5.00346 15.0602C5.42132 15.1573 5.85801 15.1464 6.2702 15.0285C6.30022 15.0208 6.32694 15.004 6.34651 14.9806C6.36608 14.9571 6.37748 14.9282 6.37906 14.898C6.38064 14.8678 6.37233 14.838 6.35532 14.8127C6.33832 14.7874 6.31349 14.768 6.28444 14.7574C6.02651 14.6563 5.78901 14.5116 5.58295 14.3299C5.92204 14.5153 6.31499 14.5852 6.69952 14.5285C7.08405 14.4719 7.43815 14.2919 7.70571 14.0172C7.72745 13.9978 7.74263 13.9724 7.74927 13.9444C7.75591 13.9164 7.7537 13.8871 7.74292 13.8603C7.73215 13.8336 7.71331 13.8106 7.68889 13.7945C7.66447 13.7783 7.6356 13.7697 7.60608 13.7698C7.60608 13.7698 6.93509 13.7698 6.57723 13.3206C6.4772 13.1772 6.40767 13.0158 6.37275 12.8458C6.33783 12.6759 6.33822 12.5009 6.3739 12.3311C6.89849 12.9248 7.61218 13.4176 8.16524 13.4176C8.27925 13.4192 8.39206 13.3948 8.49463 13.3463C8.90129 13.1484 8.96432 12.8951 8.94603 12.717C8.90534 12.5035 8.77964 12.3143 8.5963 12.1906C8.46448 12.0405 8.3711 11.8621 8.32384 11.6701C8.32006 11.6323 8.30102 11.5975 8.27089 11.5734C8.24077 11.5492 8.20203 11.5377 8.16321 11.5414C8.12438 11.5451 8.08864 11.5636 8.06386 11.5929C8.03907 11.6223 8.02727 11.66 8.03104 11.6978C8.04512 11.7888 8.07251 11.8775 8.11237 11.961H8.07781C7.74841 11.8818 7.13436 11.7334 7.00016 11.49C6.98683 11.4631 6.97991 11.4337 6.97991 11.4039C6.97991 11.3741 6.98683 11.3446 7.00016 11.3178C7.04439 11.1798 7.13272 11.0592 7.25229 10.9734C7.4287 10.8407 7.55751 10.6572 7.62031 10.449C7.73597 10.7083 7.76306 10.9969 7.69758 11.2723C7.6947 11.2909 7.69563 11.3098 7.70032 11.3281C7.705 11.3463 7.71335 11.3635 7.72488 11.3785C7.73641 11.3936 7.7509 11.4063 7.7675 11.416C7.7841 11.4256 7.80249 11.4319 7.82161 11.4345H7.84194C7.87749 11.4349 7.91195 11.4226 7.93889 11.4C7.96583 11.3775 7.98341 11.3461 7.98834 11.3118C8.17134 10.0868 7.47188 9.90077 7.09572 9.80182C6.95738 9.75288 6.80581 9.7526 6.66728 9.80104C6.52876 9.84948 6.41202 9.94358 6.3373 10.067C6.32758 10.084 6.32155 10.1028 6.31958 10.1222C6.3176 10.1416 6.31973 10.1611 6.32583 10.1797C6.33192 10.1982 6.34186 10.2154 6.35503 10.23C6.36819 10.2447 6.3843 10.2566 6.40237 10.2649C6.41967 10.2742 6.43872 10.2801 6.45838 10.2822C6.47804 10.2842 6.49793 10.2824 6.51687 10.2769C6.53581 10.2714 6.55343 10.2622 6.56868 10.2499C6.58394 10.2377 6.59652 10.2226 6.6057 10.2056C6.64979 10.1407 6.71607 10.0932 6.79277 10.0715C6.86946 10.0497 6.95159 10.0552 7.02456 10.0868C7.15223 10.1154 7.27534 10.1607 7.39055 10.2214C7.35761 10.4356 7.242 10.6295 7.06726 10.7636C6.90816 10.8815 6.78972 11.0437 6.7277 11.2287C6.7015 11.2941 6.69011 11.3642 6.69432 11.4342C6.69853 11.5042 6.71824 11.5725 6.7521 11.6344C6.95543 11.9907 7.59185 12.147 8.01884 12.2499L8.08594 12.2658C8.33197 12.3251 8.63493 12.5567 8.65933 12.7645C8.67356 12.8911 8.57596 13.0059 8.3706 13.1069C7.91718 13.3285 6.96559 12.6655 6.4166 11.9194C6.38 11.866 5.74968 10.8962 5.97538 10.1739C6.01618 10.0427 6.08695 9.92226 6.18237 9.82149C6.2778 9.72073 6.39541 9.64229 6.5264 9.59204C7.49832 9.1606 8.35637 10.6489 8.35637 10.6627C8.35637 10.6766 9.14529 12.0837 8.96229 13.0851C8.75896 14.1716 8.6756 14.9355 9.30999 15.6361C10.1169 16.4528 11.1174 17.0644 12.2237 17.4173C12.0021 17.6508 11.5507 18.2406 11.4429 19.3092ZM15.7616 16.1843C15.682 16.4049 15.5373 16.5976 15.3456 16.7384C15.1539 16.8793 14.9237 16.9619 14.684 16.9759C13.7283 17.0868 13.0248 17.1877 12.669 17.2411C11.2681 16.9522 9.95047 15.9092 9.52958 15.4481C8.98059 14.8425 9.05786 14.1716 9.25102 13.1385C9.45435 12.0461 8.6573 10.5934 8.62273 10.5301C8.58816 10.4668 7.62438 8.79448 6.40644 9.34268C6.23688 9.40934 6.08489 9.51225 5.96171 9.64379C5.83853 9.77534 5.7473 9.93215 5.69478 10.1026C5.46502 10.8586 5.98961 11.7928 6.12991 12.0243C5.98758 12.6497 6.06484 13.1484 6.35764 13.5086C6.58737 13.7744 6.90392 13.9554 7.25432 14.0212C6.258 14.6703 5.36539 13.8569 5.32472 13.8233C5.30412 13.8032 5.27782 13.7895 5.24918 13.784C5.22054 13.7785 5.19088 13.7815 5.164 13.7926C5.13711 13.8037 5.11424 13.8223 5.09832 13.8461C5.08239 13.8699 5.07414 13.8978 5.07462 13.9262C5.07462 14.3398 5.48128 14.6565 5.79238 14.8445C5.47577 14.863 5.15821 14.8295 4.85299 14.7455C4.82844 14.7393 4.80265 14.7394 4.77815 14.7458C4.75365 14.7522 4.73128 14.7647 4.71324 14.7821C4.6952 14.7995 4.6821 14.8211 4.67523 14.8449C4.66837 14.8686 4.66796 14.8937 4.67406 14.9177C4.77394 15.3205 4.84796 15.729 4.89569 16.1408C3.80585 15.745 3.81398 14.6387 3.81805 14.4942V14.4843C3.82039 14.4583 3.81537 14.4322 3.80354 14.4089C3.79171 14.3855 3.77352 14.3657 3.75095 14.3517C2.86849 13.8055 2.45574 12.5804 2.48013 12.3726C2.49298 12.351 2.49975 12.3264 2.49975 12.3014C2.49975 12.2764 2.49298 12.2518 2.48013 12.2301C1.46349 10.449 1.48788 9.70485 1.51025 9.11311C1.54285 8.76779 1.50272 8.41963 1.39232 8.08993C1.02633 7.05884 1.79898 5.71505 1.81321 5.70516C1.82631 5.68357 1.83333 5.65899 1.83355 5.63391C1.83355 4.62063 2.79123 3.67464 3.19992 3.49256C3.56282 3.3011 3.89504 3.05908 4.18607 2.77416C4.19656 2.76429 4.20547 2.75295 4.21251 2.74052C5.24542 0.830724 8.11847 1.44225 8.14897 1.44819C8.17806 1.45728 8.20935 1.45728 8.23844 1.44819C8.42475 1.37527 8.62038 1.32734 8.81996 1.3057C9.72478 1.19883 11.4348 1.89942 11.937 2.12107C11.9606 2.13134 11.9865 2.13543 12.0122 2.13295C12.6629 2.05774 13.3908 1.99046 14.2672 2.7326C14.989 3.35205 14.8894 4.12784 14.8304 4.59292C14.8173 4.67684 14.8091 4.76142 14.806 4.84624C14.806 5.02238 14.4827 5.31924 14.2387 5.48944C13.5377 5.55525 12.8574 5.75713 12.2379 6.08316C12.2198 6.09319 12.2039 6.10665 12.1912 6.12274C12.1424 6.18409 11.695 6.75208 11.0302 7.61693C10.7365 7.9614 10.34 8.20834 9.89558 8.32346C9.86141 8.33415 9.83246 8.35669 9.81424 8.38679C9.5598 8.81202 9.33561 9.25372 9.14326 9.70881V9.7286C9.07006 10.0076 9.13309 10.2451 9.29982 10.8765C9.39945 11.2525 9.53771 11.767 9.70648 12.523C10.3226 15.2502 13.2485 15.9884 13.6185 15.9884C13.9235 15.9884 14.56 15.9884 14.8629 15.6737C14.9206 15.614 14.9645 15.5431 14.9918 15.4657C15.0192 15.3882 15.0293 15.306 15.0215 15.2245C15.0156 15.1535 15.0283 15.0823 15.0585 15.0176C15.0888 14.9528 15.1355 14.8966 15.1944 14.8544C15.2729 14.793 15.3671 14.7533 15.4668 14.7396C15.5009 14.8948 15.5816 15.0367 15.6986 15.1473C15.8511 15.3096 15.9162 15.7746 15.7616 16.1843ZM15.6457 12.4993C15.7456 12.5879 15.8313 12.6907 15.8999 12.8041C15.6844 12.8575 15.1557 13.0158 14.8995 13.3542C14.7371 13.5289 14.54 13.6696 14.32 13.7679C14.3375 13.7303 14.3511 13.6912 14.3607 13.6511C14.4134 13.4833 14.4959 13.3259 14.6047 13.186C14.7196 13.0074 14.8716 12.8541 15.0508 12.7358C15.2301 12.6176 15.4327 12.537 15.6457 12.4993ZM16.1724 11.8205C15.9873 11.9471 15.7962 12.0777 15.6315 12.2163C15.3716 12.2572 15.1236 12.3517 14.9041 12.4933C14.6846 12.6349 14.4987 12.8205 14.3587 13.0376C14.2359 13.2014 14.1436 13.3849 14.0862 13.5799C14.0659 13.6531 14.0537 13.7006 13.7527 14.0331C13.733 14.0565 13.7215 14.0854 13.7198 14.1156C13.7181 14.1459 13.7264 14.1759 13.7433 14.2012C13.7603 14.2266 13.7852 14.246 13.8143 14.2567C13.8434 14.2674 13.8753 14.2688 13.9052 14.2607C13.9418 14.2468 14.8263 13.9361 15.1374 13.5225C15.3407 13.2513 15.8165 13.1266 15.9873 13.0772C15.9874 13.1443 15.9723 13.2107 15.9431 13.2715C15.914 13.3324 15.8715 13.3863 15.8186 13.4294C15.7972 13.4498 15.7826 13.4761 15.7768 13.5047C15.771 13.5333 15.7742 13.563 15.786 13.5898C15.7962 13.6135 16.0321 14.1558 15.6315 14.3398L15.6051 14.3556C15.5727 14.3827 15.5453 14.4148 15.5237 14.4506C15.406 14.449 15.2896 14.4748 15.1842 14.5258C15.04 14.585 14.9185 14.6868 14.8368 14.8167C14.7551 14.9467 14.7173 15.0983 14.7287 15.2502C14.7339 15.2927 14.7294 15.3358 14.7157 15.3764C14.702 15.4171 14.6794 15.4544 14.6494 15.4857C14.4339 15.7093 13.8361 15.7093 13.6206 15.7093C13.277 15.7093 10.5706 15.0226 9.99114 12.4597C9.81831 11.6978 9.68005 11.1812 9.58448 10.8012C9.43198 10.2313 9.38115 10.0096 9.42385 9.81172C9.60045 9.39446 9.80419 8.98859 10.0338 8.59657C10.5137 8.4594 10.9392 8.18328 11.2538 7.80495C11.8638 7.01332 12.2928 6.4671 12.3945 6.33648C12.9531 6.04442 13.5639 5.85902 14.194 5.79026C14.7613 6.89062 15.3123 8.16514 15.2411 8.36304C15.0093 8.74896 15.0256 9.4159 15.2737 9.71078C15.3163 9.76224 15.4078 9.86515 15.5258 9.99379C15.8267 10.3263 16.6075 11.1931 16.6909 11.4148C16.533 11.5672 16.3592 11.7031 16.1724 11.8205Z" fill="#222222" stroke="#222222" stroke-width="0.5"/>
</svg>
