<svg width="22" height="14" viewBox="0 0 22 14" fill="none" xmlns="http://www.w3.org/2000/svg">
<path d="M18.2554 7.9425C17.8998 7.49333 18.0015 7.2935 18.2554 6.892C18.26 6.88741 21.1961 2.83025 21.4986 1.45433L21.5004 1.45341C21.6508 0.951996 21.5004 0.583496 20.7735 0.583496H18.3682C17.7558 0.583496 17.4735 0.899746 17.3223 1.25358C17.3223 1.25358 16.0976 4.18508 14.3651 6.08533C13.8059 6.63441 13.5474 6.81041 13.2422 6.81041C13.0918 6.81041 12.8581 6.63441 12.8581 6.133V1.45341C12.8581 0.852079 12.6867 0.583496 12.1798 0.583496H8.39758C8.0135 0.583496 7.78525 0.863996 7.78525 1.12525C7.78525 1.69541 8.6515 1.8265 8.74133 3.43066V6.91125C8.74133 7.67391 8.60292 7.81416 8.29583 7.81416C7.47817 7.81416 5.49358 4.87075 4.3175 1.502C4.08008 0.848413 3.84817 0.584413 3.23125 0.584413H0.825C0.138417 0.584413 0 0.900663 0 1.2545C0 1.87966 0.817666 4.98808 3.80233 9.09475C5.7915 11.8979 8.59283 13.4168 11.1412 13.4168C12.6729 13.4168 12.8599 13.0795 12.8599 12.4992C12.8599 9.82075 12.7215 9.56775 13.4888 9.56775C13.8444 9.56775 14.4568 9.74375 15.8868 11.0958C17.5212 12.6991 17.7898 13.4168 18.7046 13.4168H21.1099C21.7956 13.4168 22.143 13.0795 21.9432 12.414C21.4858 11.0142 18.3948 8.135 18.2554 7.9425Z" fill="#222222"/>
</svg>
